<?xml version="1.0" encoding="UTF-8" standalone="no"?>
<!DOCTYPE svg PUBLIC "-//W3C//DTD SVG 1.1//EN"
 "http://www.w3.org/Graphics/SVG/1.1/DTD/svg11.dtd">
<!-- Generated by graphviz version 2.43.0 (0)
 -->
<!-- Title: G Pages: 1 -->
<svg width="527pt" height="206pt"
 viewBox="0.00 0.00 527.00 206.00" xmlns="http://www.w3.org/2000/svg" xmlns:xlink="http://www.w3.org/1999/xlink">
<g id="graph0" class="graph" transform="scale(1 1) rotate(0) translate(4 202)">
<title>G</title>
<polygon fill="white" stroke="transparent" points="-4,4 -4,-202 523,-202 523,4 -4,4"/>
<!-- get_data -->
<g id="node1" class="node">
<title>get_data</title>
<polygon fill="none" stroke="black" points="87,-144 9,-144 9,-108 87,-108 87,-144"/>
<text text-anchor="middle" x="48" y="-122.3" font-family="Times,serif" font-size="14.00">get_data</text>
</g>
<!-- configure_data -->
<g id="node2" class="node">
<title>configure_data</title>
<polygon fill="none" stroke="black" points="254,-144 132,-144 132,-108 254,-108 254,-144"/>
<text text-anchor="middle" x="193" y="-122.3" font-family="Times,serif" font-size="14.00">configure_data</text>
</g>
<!-- get_data&#45;&gt;configure_data -->
<g id="edge5" class="edge">
<title>get_data&#45;&gt;configure_data</title>
<path fill="none" stroke="black" d="M87.32,-126C97.88,-126 109.68,-126 121.44,-126"/>
<polygon fill="black" stroke="black" points="121.74,-129.5 131.74,-126 121.74,-122.5 121.74,-129.5"/>
</g>
<!-- train_model -->
<g id="node3" class="node">
<title>train_model</title>
<polygon fill="none" stroke="black" points="391,-144 290,-144 290,-108 391,-108 391,-144"/>
<text text-anchor="middle" x="340.5" y="-122.3" font-family="Times,serif" font-size="14.00">train_model</text>
</g>
<!-- configure_data&#45;&gt;train_model -->
<g id="edge6" class="edge">
<title>configure_data&#45;&gt;train_model</title>
<path fill="none" stroke="black" d="M254.02,-126C262.48,-126 271.18,-126 279.63,-126"/>
<polygon fill="black" stroke="black" points="279.8,-129.5 289.8,-126 279.8,-122.5 279.8,-129.5"/>
</g>
<!-- parquet_dir -->
<g id="node6" class="node">
<title>parquet_dir</title>
<path fill="none" stroke="black" d="M243,-32.73C243,-34.53 220.59,-36 193,-36 165.41,-36 143,-34.53 143,-32.73 143,-32.73 143,-3.27 143,-3.27 143,-1.47 165.41,0 193,0 220.59,0 243,-1.47 243,-3.27 243,-3.27 243,-32.73 243,-32.73"/>
<path fill="none" stroke="black" d="M243,-32.73C243,-30.92 220.59,-29.45 193,-29.45 165.41,-29.45 143,-30.92 143,-32.73"/>
<text text-anchor="middle" x="193" y="-14.3" font-family="Times,serif" font-size="14.00">parquet_dir</text>
</g>
<!-- configure_data&#45;&gt;parquet_dir -->
<g id="edge3" class="edge">
<title>configure_data&#45;&gt;parquet_dir</title>
<path fill="none" stroke="black" d="M132.19,-107.81C124.94,-103.15 118.52,-97.31 114,-90 105.59,-76.39 105.59,-67.61 114,-54 118.89,-46.09 126.01,-39.9 134,-35.07"/>
<polygon fill="black" stroke="black" points="135.75,-38.1 142.95,-30.33 132.47,-31.91 135.75,-38.1"/>
</g>
<!-- feature_dir -->
<g id="node7" class="node">
<title>feature_dir</title>
<path fill="none" stroke="black" d="M240.5,-86.73C240.5,-88.53 219.21,-90 193,-90 166.79,-90 145.5,-88.53 145.5,-86.73 145.5,-86.73 145.5,-57.27 145.5,-57.27 145.5,-55.47 166.79,-54 193,-54 219.21,-54 240.5,-55.47 240.5,-57.27 240.5,-57.27 240.5,-86.73 240.5,-86.73"/>
<path fill="none" stroke="black" d="M240.5,-86.73C240.5,-84.92 219.21,-83.45 193,-83.45 166.79,-83.45 145.5,-84.92 145.5,-86.73"/>
<text text-anchor="middle" x="193" y="-68.3" font-family="Times,serif" font-size="14.00">feature_dir</text>
</g>
<!-- configure_data&#45;&gt;feature_dir -->
<g id="edge4" class="edge">
<title>configure_data&#45;&gt;feature_dir</title>
<path fill="none" stroke="black" d="M193,-107.79C193,-105.31 193,-102.83 193,-100.34"/>
<polygon fill="black" stroke="black" points="196.5,-100.14 193,-90.14 189.5,-100.14 196.5,-100.14"/>
</g>
<!-- run_model -->
<g id="node4" class="node">
<title>run_model</title>
<polygon fill="none" stroke="black" points="519,-144 427,-144 427,-108 519,-108 519,-144"/>
<text text-anchor="middle" x="473" y="-122.3" font-family="Times,serif" font-size="14.00">run_model</text>
</g>
<!-- train_model&#45;&gt;run_model -->
<g id="edge7" class="edge">
<title>train_model&#45;&gt;run_model</title>
<path fill="none" stroke="black" d="M391.21,-126C399.5,-126 408.16,-126 416.58,-126"/>
<polygon fill="black" stroke="black" points="416.71,-129.5 426.71,-126 416.71,-122.5 416.71,-129.5"/>
</g>
<!-- model_dir -->
<g id="node8" class="node">
<title>model_dir</title>
<path fill="none" stroke="black" d="M384,-86.73C384,-88.53 364.5,-90 340.5,-90 316.5,-90 297,-88.53 297,-86.73 297,-86.73 297,-57.27 297,-57.27 297,-55.47 316.5,-54 340.5,-54 364.5,-54 384,-55.47 384,-57.27 384,-57.27 384,-86.73 384,-86.73"/>
<path fill="none" stroke="black" d="M384,-86.73C384,-84.92 364.5,-83.45 340.5,-83.45 316.5,-83.45 297,-84.92 297,-86.73"/>
<text text-anchor="middle" x="340.5" y="-68.3" font-family="Times,serif" font-size="14.00">model_dir</text>
</g>
<!-- train_model&#45;&gt;model_dir -->
<g id="edge2" class="edge">
<title>train_model&#45;&gt;model_dir</title>
<path fill="none" stroke="black" d="M340.5,-107.79C340.5,-105.31 340.5,-102.83 340.5,-100.34"/>
<polygon fill="black" stroke="black" points="344,-100.14 340.5,-90.14 337,-100.14 344,-100.14"/>
</g>
<!-- credentials -->
<g id="node5" class="node">
<title>credentials</title>
<text text-anchor="middle" x="48" y="-176.3" font-family="Times,serif" font-size="14.00">credentials</text>
</g>
<!-- credentials&#45;&gt;get_data -->
<g id="edge1" class="edge">
<title>credentials&#45;&gt;get_data</title>
<path fill="none" stroke="black" d="M48,-161.79C48,-159.31 48,-156.83 48,-154.34"/>
<polygon fill="black" stroke="black" points="51.5,-154.14 48,-144.14 44.5,-154.14 51.5,-154.14"/>
</g>
</g>
</svg>
